#N canvas -2 119 1665 955 10;
#X obj 343 351 noteout;
#X floatatom 186 333 5 0 0 0 - - -;
#X floatatom 230 346 5 0 0 0 - - -;
#X obj 297 119 notein 1;
#X msg 384 311 1;
#X floatatom 684 158 5 0 0 0 - - -;
#X obj 709 344 bendout;
#X obj 627 107 ctlin 1;
#X obj 868 106 ctlin;
#X floatatom 873 159 5 0 0 0 - - -;
#X floatatom 913 160 5 0 0 0 - - -;
#X floatatom 955 159 5 0 0 0 - - -;
#X obj 485 125 notein 2;
#X floatatom 485 183 5 0 0 0 - - -;
#X floatatom 530 185 5 0 0 0 - - -;
#X connect 3 0 0 0;
#X connect 3 0 1 0;
#X connect 3 1 0 1;
#X connect 3 1 2 0;
#X connect 4 0 0 2;
#X connect 7 0 5 0;
#X connect 8 0 9 0;
#X connect 8 1 10 0;
#X connect 8 2 11 0;
#X connect 12 0 13 0;
#X connect 12 1 14 0;
