#N canvas -2 105 1009 708 10;
#X obj 27 423 noteout;
#X floatatom 70 331 5 0 0 0 - - -;
#X floatatom 114 344 5 0 0 0 - - -;
#X obj 21 109 notein 1;
#X floatatom 769 165 5 0 0 0 - - -;
#X obj 768 91 ctlin 1;
#X obj 868 106 ctlin;
#X floatatom 873 159 5 0 0 0 - - -;
#X floatatom 913 160 5 0 0 0 - - -;
#X floatatom 955 159 5 0 0 0 - - -;
#X floatatom 528 230 5 0 0 0 - - -;
#X floatatom 573 232 5 0 0 0 - - -;
#X obj 528 172 notein 18;
#X obj 659 182 notein 19;
#X floatatom 658 231 5 0 0 0 - - -;
#X floatatom 703 230 5 0 0 0 - - -;
#X obj 524 279 ==;
#X msg 570 262 49;
#X obj 491 238 bng 15 250 50 0 empty empty empty 17 7 0 10 -262144
-1 -1;
#X obj 623 319 stripnote;
#X msg 723 466 1;
#X msg 788 466 2;
#X obj 734 408 bng 15 250 50 0 empty empty empty 17 7 0 10 -262144
-1 -1;
#X msg 845 465 3;
#X text 524 140 orange;
#X msg 654 482 0;
#X obj 518 346 bng 15 250 50 0 empty empty empty 17 7 0 10 -262144
-1 -1;
#X obj 552 308 &&;
#X floatatom 557 342 5 0 0 0 - - -;
#X floatatom 477 346 5 0 0 0 - - -;
#X obj 747 370 spigot 0;
#X obj 509 432 == 0;
#X obj 388 484 moses 1;
#X obj 422 549 bng 15 250 50 0 empty empty empty 17 7 0 10 -262144
-1 -1;
#X msg 842 305 0;
#X obj 850 351 bng 15 250 50 0 empty empty empty 17 7 0 10 -262144
-1 -1;
#X obj 335 278 ==;
#X msg 383 238 44;
#X obj 373 312 &&;
#X obj 379 362 bng 15 250 50 0 empty empty empty 17 7 0 10 -262144
-1 -1;
#X floatatom 420 394 5 0 0 0 - - -;
#X obj 380 201 loadbang;
#X obj 510 69 loadbang;
#X obj 659 432 loadbang;
#X obj 361 417 moses 1;
#X obj 216 270 ==;
#X obj 254 304 &&;
#X obj 260 354 bng 15 250 50 0 empty empty empty 17 7 0 10 -262144
-1 -1;
#X floatatom 301 386 5 0 0 0 - - -;
#X obj 261 193 loadbang;
#X obj 242 409 moses 1;
#X msg 264 230 42;
#X obj 701 495 bng 15 250 50 0 empty empty empty 17 7 0 10 -262144
-1 -1;
#X obj 635 523 bng 15 250 50 0 empty empty empty 17 7 0 10 -262144
-1 -1;
#X obj 107 276 ==;
#X obj 145 310 &&;
#X obj 151 360 bng 15 250 50 0 empty empty empty 17 7 0 10 -262144
-1 -1;
#X floatatom 192 392 5 0 0 0 - - -;
#X obj 152 199 loadbang;
#X obj 133 415 moses 1;
#X msg 155 236 46;
#X floatatom 851 396 5 0 0 0 - - -;
#X floatatom 908 336 5 0 0 0 - - -;
#X obj 719 540 ctlout 5 5;
#X obj 101 383 loadbang;
#X msg 57 372 5;
#X obj 772 417 bendout 5;
#X obj 37 298 +;
#X msg 254 469 12;
#X msg 300 474 0;
#X obj 306 447 loadbang;
#X msg 238 550 0;
#X obj 244 523 loadbang;
#X obj 204 583 bng 15 250 50 0 empty empty empty 17 7 0 10 -262144
-1 -1;
#X obj 251 581 bng 15 250 50 0 empty empty empty 17 7 0 10 -262144
-1 -1;
#X obj 282 504 bng 15 250 50 0 empty empty empty 17 7 0 10 -262144
-1 -1;
#X msg 192 545 12;
#X connect 3 0 1 0;
#X connect 3 0 67 0;
#X connect 3 1 0 1;
#X connect 3 1 2 0;
#X connect 4 0 30 0;
#X connect 5 0 4 0;
#X connect 6 0 7 0;
#X connect 6 1 8 0;
#X connect 6 2 9 0;
#X connect 10 0 16 0;
#X connect 10 0 18 0;
#X connect 10 0 36 0;
#X connect 10 0 45 0;
#X connect 10 0 54 0;
#X connect 11 0 27 1;
#X connect 11 0 38 1;
#X connect 11 0 46 1;
#X connect 11 0 55 1;
#X connect 12 0 10 0;
#X connect 12 1 11 0;
#X connect 13 0 14 0;
#X connect 13 1 15 0;
#X connect 16 0 27 0;
#X connect 16 0 29 0;
#X connect 17 0 16 1;
#X connect 20 0 52 0;
#X connect 20 0 63 0;
#X connect 21 0 63 0;
#X connect 23 0 63 0;
#X connect 25 0 53 0;
#X connect 25 0 63 0;
#X connect 27 0 26 0;
#X connect 27 0 28 0;
#X connect 28 0 30 1;
#X connect 28 0 31 0;
#X connect 30 0 22 0;
#X connect 30 0 61 0;
#X connect 30 0 66 0;
#X connect 31 0 32 0;
#X connect 32 1 33 0;
#X connect 32 1 34 0;
#X connect 34 0 35 0;
#X connect 34 0 66 0;
#X connect 36 0 38 0;
#X connect 37 0 36 1;
#X connect 38 0 39 0;
#X connect 38 0 40 0;
#X connect 40 0 44 0;
#X connect 41 0 37 0;
#X connect 42 0 17 0;
#X connect 43 0 25 0;
#X connect 44 0 69 0;
#X connect 44 1 68 0;
#X connect 45 0 46 0;
#X connect 46 0 47 0;
#X connect 46 0 48 0;
#X connect 48 0 50 0;
#X connect 49 0 51 0;
#X connect 50 0 71 0;
#X connect 50 1 76 0;
#X connect 51 0 45 1;
#X connect 54 0 55 0;
#X connect 55 0 56 0;
#X connect 55 0 57 0;
#X connect 57 0 59 0;
#X connect 58 0 60 0;
#X connect 60 0 54 1;
#X connect 64 0 65 0;
#X connect 65 0 0 2;
#X connect 67 0 0 0;
#X connect 68 0 67 1;
#X connect 68 0 75 0;
#X connect 69 0 67 1;
#X connect 70 0 69 0;
#X connect 71 0 67 1;
#X connect 71 0 74 0;
#X connect 72 0 71 0;
#X connect 76 0 67 1;
#X connect 76 0 73 0;
